<svg version="1.1" xmlns="http://www.w3.org/2000/svg" viewBox="0 0 392 489" class="logo-icon">
  <path fill="#FFFFFF" d="M172.5,166.5l182.7,234.4l27.1,35.1c8.1,10.3,10.8,21.6,4.6,33.5c-6.1,12-16.7,17.6-30.2,17.7h-48c-11.2,0.2-19.8-3.9-26.7-12.8C240,420.2,198,366.5,156,312.7c-15.3-19.5-30.7-39-46.4-59.1v134.9l12.3-14.6c3.8-4.6,7.5-9.4,11.3-13.6c7.6-9.3,18.7-9.1,26.4,2.4l28.2,35.7c5.4,6.8,5.9,15.3,0.4,22.1l-34.3,41.2c-5.2,6.1-12.3,8.5-20.1,8.5h-98C20,475,5,460,5,441.2V202.3c0-13.2,3.7-25,12.5-34.8c9-10.2,20.2-15.7,33.8-15.8h94c11.8,0,20.7,5.2,27.3,14.8z"></path>
  <path fill="#FFFFFF" d="M359,228.8c-12.4,15-24.9,30-37.5,44.9l-5.1,5.4c-6.8,6.7-16.8,6.5-22.9-0.9l-44.1-55.6c-4.9-6.3-4.8-14.3,0.1-20.4l35.4-42.7c5-5.9,12-8.5,19.6-8.4h56.5c12.4,0.2,21.8,6.2,27.0,17.4c5.1,11.1,2.8,21.3-4.7,30.4L359,228.8z"></path>
  <path fill="#FFFFFF" d="M33.3,10.1C67.2-5.9,105,11,113.4,46.2c5.2,21.9-1.5,40.7-18.6,55.1c-17.4,14.6-37.4,17.4-58,8.4C16.8,100.9,5.4,84.8,4,62.7C2.6,39.4,13,22.1,33.3,10.1z"></path>
</svg>